<svg id="Layer_1" data-name="Layer 1" xmlns="http://www.w3.org/2000/svg" viewBox="0 0 1372.3 652.55"><defs><style>.cls-1,.cls-2{fill:#c37365;}.cls-2{stroke:#c37365;stroke-miterlimit:10;stroke-width:3px;}</style></defs><path class="cls-1" d="M578,1397.65c-24.25-50.57-34-113.61-34-175.27a628.44,628.44,0,0,1,17.32-144.79c24.25-90.06,67.89-169.73,152.41-171.8,40.18,0,61,34.63,61,80.36,0,31.86-14.54,66.5-28.4,66.5-6.93,0-11.08-6.23-11.08-13.16,0-8.31,6.92-13.16,11.77-13.16l7.62.69a3.54,3.54,0,0,0,3.47-2.77,113.9,113.9,0,0,0,6.92-38.8c0-35.33-13.85-68.58-50.57-69.27-57.5,0-90.06,90.06-106,169a703.9,703.9,0,0,0-13.16,135.09c0,101.84,29.09,234.16,85.9,236.93,73.43-13.16,107.38-154.49,128.85-239.7,3.47-16.62,6.93-31.17,10.4-41.56,1.38-2.77,3.46-4.16,5.54-4.16a5.21,5.21,0,0,1,4.85,4.85l-.69,2.08-10.4,40.87c-16.62,66.51-51.95,232.77-137.86,247.32a113.73,113.73,0,0,1-15.24,1.39C625.11,1468.32,596.71,1435.76,578,1397.65Z" transform="translate(-524.26 -815.77)"/><path class="cls-1" d="M925.08,1345.7c-16.62-10.4-20.78-54-20.78-93.53,0-20.78,1.39-40.18,2.08-52.65-13.16,42.26-30.48,93.52-49.88,96.3l-5.54.69c-31.87,0-40.18-37.41-40.18-68.59l.69-17.31c3.46-36.72,22.86-99.07,64.43-99.07l9,.69c11.09,2.08,22.17,11.09,28.41,20.78l2.77-13.16c2.08-7.62,11.77-12.47,21.47-12.47,10.39,0,20.79,5.54,20.79,17.32l-.7,2.77c-1.38,13.17-13.16,104.61-13.16,164.19a233.41,233.41,0,0,0,2.08,33.95c.69,7.62,2.77,13.16,4.16,13.16,25.63-8.32,68.58-130.93,85.21-164.19a5.22,5.22,0,0,1,4.85-2.77c1.38,0,4.85,1.39,4.85,4.85a6.85,6.85,0,0,1-.7,2.77c-18,36.72-59.58,159.34-91.44,169a39.43,39.43,0,0,1-12.47,2.08A27,27,0,0,1,925.08,1345.7Zm-14.55-195.37a42.5,42.5,0,0,0-10.39-18c-4.85-4.15-9.7-7.62-15.93-9.7C869.66,1130.94,851,1227.23,851,1268.8c0,7.62.69,13.85,2.07,16.62l2.08.7C873.82,1286.12,902.91,1173.2,910.53,1150.33Z" transform="translate(-524.26 -815.77)"/><path class="cls-1" d="M1101.05,1359.55c-9,0-18,0-25.64-5.54-31.86-22.17-40.87-119.16-40.87-174.58l.69-22.86c.7-9.7,11.78-15.24,22.17-15.24h2.08c11.08,0,22.17,5.54,22.17,18.7v1.39c-.69,5.54-.69,20.09-.69,39.49,0,55.42,3.46,147.56,20.09,148.25h1.38c25.63,0,52.65-65.12,69.28-134.4-23.55-13.16-48.49-49.88-49.19-112.92v-2.77c0-34,11.78-63,32.56-67.89l6.24-.7c30.48,0,33.94,48.5,33.94,78.29v13.16c-1.38,26.33-5.54,56.81-11.77,86.6a28.52,28.52,0,0,0,7.62.69c24.24,0,54-23.55,65.12-35.33a6.29,6.29,0,0,1,3.46-2.08,5.28,5.28,0,0,1,3.47,1.39,6,6,0,0,1,2.07,4.15,5.33,5.33,0,0,1-1.38,3.47c-13.86,14.54-45.73,38.79-72.74,38.79l-9.7-1.38c-17.32,73.43-48.5,141.32-79.67,141.32Zm83.82-239v-11.09c0-23.55-2.77-69.28-22.17-69.28l-4.15.7c-10.39,3.46-15.24,27-15.24,56.11,0,40.87,10.39,92.14,30.48,106.69A515.2,515.2,0,0,0,1184.87,1120.55Z" transform="translate(-524.26 -815.77)"/><path class="cls-1" d="M1281.16,1304.13c-23.55-8.31-29.1-54.73-29.1-93.52,0-25.64,2.08-47.81,3.47-54,.69-11.09,11.77-15.93,22.86-15.93h2.08c10.39,0,20.78,5.54,20.78,13.85v.69c0,13.17-5.54,57.5-5.54,92.83,0,26.33,2.77,47.81,13.85,47.81,25.64-.7,47.11-81.75,60.28-120.55.69-2.07,3.46-3.46,4.84-3.46l2.77.69c1.39.7,2.08,2.77,2.08,4.16v2.08c-15.24,43.64-36,125.39-70,126.78l-10.39.69A71.29,71.29,0,0,1,1281.16,1304.13Zm-17.32-208.52a19,19,0,0,1,5.54-13.17c3.47-2.77,7.62-4.85,12.47-4.85a21.86,21.86,0,0,1,13.16,4.85,20.3,20.3,0,0,1,4.85,13.17,18,18,0,0,1-36,0Z" transform="translate(-524.26 -815.77)"/><path class="cls-1" d="M1473.75,1345.7c-16.63-10.4-20.79-54-20.79-93.53,0-20.78,1.39-40.18,2.08-52.65-13.16,42.26-30.48,93.52-49.88,96.3l-5.54.69c-31.87,0-40.18-37.41-40.18-68.59l.69-17.31c3.46-36.72,22.86-99.07,64.43-99.07l9,.69c11.08,2.08,22.16,11.09,28.4,20.78l2.77-13.16c2.08-7.62,11.78-12.47,21.48-12.47,10.39,0,20.78,5.54,20.78,17.32l-.69,2.77c-1.39,13.17-13.17,104.61-13.17,164.19a234.84,234.84,0,0,0,2.08,33.95c.69,7.62,2.77,13.16,4.16,13.16,25.63-8.32,68.58-130.93,85.21-164.19,1.39-2.08,2.77-2.77,4.85-2.77,1.38,0,4.85,1.39,4.85,4.85a6.94,6.94,0,0,1-.69,2.77c-18,36.72-59.58,159.34-91.45,169a39.39,39.39,0,0,1-12.47,2.08A27,27,0,0,1,1473.75,1345.7Zm-14.55-195.37a42.6,42.6,0,0,0-10.39-18c-4.85-4.15-9.7-7.62-15.94-9.7-14.54,8.32-33.25,104.61-33.25,146.18,0,7.62.69,13.85,2.08,16.62l2.08.7C1422.48,1286.12,1451.58,1173.2,1459.2,1150.33Z" transform="translate(-524.26 -815.77)"/><path class="cls-1" d="M1640.7,1360.94c-8.31-10.39-11.08-27.71-11.08-47.11,0-40.87,13.16-92.14,13.16-105.3l-.69-2.77c-6.93-14.55-75.51-2.08-75.51-70.67a116.69,116.69,0,0,1,2.08-20.78c5.54-34,24.94-47.8,40.18-47.8a34.87,34.87,0,0,1,8.31,1.38c9,4.16,13.85,13.17,13.85,26.33l-.69,10.39c-3.46,20.78-13.85,45-23.55,56.12,24.24,9,61.66.69,74.12,24.24a29.59,29.59,0,0,1,4.16,15.24c0,8.32-3.46,18-5.54,29.1-7.62,34-18,81.75-18,108.77,0,12.47,2.08,20.78,8.31,20.78,28.4-.69,80.73-162.41,96.66-199.13.69-2.07,1.58,7.39,3.66,7.39l2.35-.36c1.39.7,6-4.12,6-2l-4.7,14c-18,41.56-66.51,188.43-103.23,190.51l-8.31.69C1654.56,1369.94,1646.25,1367.87,1640.7,1360.94Zm-19.39-259.79v-6.24c0-10.39-2.77-15.93-7.62-17.32h-2.08c-9.7,0-22.17,14.55-24.25,40.18l-.69,11.09c0,10.39,2.08,19.4,10.39,26.32C1609.53,1144.79,1619.23,1119.85,1621.31,1101.15Z" transform="translate(-524.26 -815.77)"/><path class="cls-1" d="M1896.48,1176.36a83.19,83.19,0,0,0-47.47-45.07c-12.39-4.59-25.53-6.62-38.33-9.72q-6.33-1.53-12.53-3.49c11-19.61,23-38.81,28.12-60.94,3.76-16.11,4.63-37-5.34-51.27-9.49-13.58-30.12-1.06-37.63,8.68-6.6,8.58-9.88,20-12.69,30.26-.84,3.06-1.58,6.14-2.24,9.23a154.14,154.14,0,0,0-10.06-13.58c-8.43-10.13-18.38-20.68-30.31-26.65-20.32-10.18-50.17,2.46-49.71,27.21.24,13,9.13,23.63,18.07,32.2a245.18,245.18,0,0,0,32.92,26.4,212.21,212.21,0,0,0,52.54,25.34c-8.11,14.58-15.58,29.43-19.22,45.86-.52,2.35,14.68-1.34,15.62-5.6,2.9-13.14,8.25-25.23,14.4-37q8.06,2.25,16.35,4.06c15.49,3.39,30.88,7.27,44.07,16.48a81.09,81.09,0,0,1,27.76,34.54C1882.11,1186.35,1897.84,1179.53,1896.48,1176.36Zm-122.13-67.44a228.15,228.15,0,0,1-63.07-43.39c-8-7.8-15.94-17.28-17.17-28.82a26.14,26.14,0,0,1,2.58-14.68,16.08,16.08,0,0,1,2.23-3.38c4.59-4.94.62-.59,1-.67,3.32-.57,7.56,1.11,10.58,2.36,12.58,5.17,22.76,16.05,31.37,26.25a159.93,159.93,0,0,1,22.82,36c1.37,3,15.49-3.34,15.64-6.28a175.25,175.25,0,0,1,5.2-34.69c2.64-10.25,5.68-22.41,12.21-31,.58-.77,1.21-1.5,1.87-2.22l.79.15c1.51,1.48,3.45,2.35,4.81,4.24,2.64,3.68,4.28,8.49,5.51,12.83a70,70,0,0,1,1.31,29.84c-3.38,21.58-13.77,40.32-24.37,59Q1780.95,1112,1774.35,1108.92Z" transform="translate(-524.26 -815.77)"/><path class="cls-2" d="M568.52,955.23c1.61,1.2,4.55,3.55,22.67,16.87l1.6-3.14c-18.26-13.42-20.13-14.83-22.26-16.42-3-2.24-6-4.48-9.06-6.7,7.54,2.58,14.6,3.11,19.7-.41a12.52,12.52,0,0,0,1-.78c10.4-8.55,3.85-25.28-4.07-38.49,11.64,12.28,25,22.22,34,16l.44-.32c6.87-5.06,7.2-15.83,1-32a156.68,156.68,0,0,0-6.79-15,157.6,157.6,0,0,0,11.58,11.68c12.89,11.56,23.07,15.08,30.26,10.46l.44-.29c9-6.21,4.49-22.24-2.85-37.49,9.53,12.11,22.83,24.18,34.53,17.51.37-.21.74-.44,1.09-.68,5.1-3.51,7.12-10.3,7.39-18.26q1.5,5.46,3,10.85c.73,2.56.92,3,6.86,26.2l3.39-.23c-.52.19-1.45-7.29-7-26.89q-5.31-18.53-9.88-37.3c-.61-2.49-1.22-5-1.81-7.49-1.09.5-2.18,1-3.27,1.52,0,0,.77,2.63,1.76,6.65,2.91,11.71,7.44,35.43-2.36,42.19-.27.18-.55.35-.83.51-12.65,7.25-29.29-14.41-36.83-25.79-2.53-3.82-4-6.48-4-6.52-1.4.87-2.79,1.74-4.16,2.63,0,0,1.54,2.43,3.66,6.2,6.66,11.79,19.16,36.9,9.41,43.63l-.34.21c-13.21,8.56-39.55-22.7-51.52-38.54-3.84-5.09-6.21-8.59-6.17-8.67l-1,.81-1.12.67c.08,0,2.51,3.44,5.9,8.85,10.54,16.82,30.37,52.57,17.67,61.87l-.32.24c-9.75,6.72-28.77-13.9-37.42-24.33-2.76-3.32-4.47-5.61-4.48-5.63-1.32,1-2.64,2-3.94,2.95,0,0,2,2.36,4.65,6.08,8,11.1,22.27,34.36,11,43.6a8.87,8.87,0,0,1-.78.59c-9.81,6.76-30.36-5.92-40.27-12.81-3.4-2.35-5.54-4-5.58-4l-2.59,2.52q3.2,2.17,6.36,4.36Q553.1,943.69,568.52,955.23Z" transform="translate(-524.26 -815.77)"/><path class="cls-2" d="M572.35,888.49a6.79,6.79,0,0,1-2.07,9.42,6.91,6.91,0,0,1-9.35-2.64,6.78,6.78,0,0,1,2.07-9.42A6.91,6.91,0,0,1,572.35,888.49Z" transform="translate(-524.26 -815.77)"/><path class="cls-2" d="M642,840.48A6.78,6.78,0,0,1,640,849.9a6.92,6.92,0,0,1-9.35-2.65,6.79,6.79,0,0,1,2.06-9.42A6.92,6.92,0,0,1,642,840.48Z" transform="translate(-524.26 -815.77)"/><path class="cls-2" d="M538.24,924a6.79,6.79,0,0,1-2.06,9.42,6.93,6.93,0,0,1-9.36-2.64,6.79,6.79,0,0,1,2.07-9.42A6.91,6.91,0,0,1,538.24,924Z" transform="translate(-524.26 -815.77)"/><path class="cls-2" d="M688.05,820.8a6.79,6.79,0,0,1-2.07,9.42,6.92,6.92,0,0,1-9.35-2.65,6.78,6.78,0,0,1,2.07-9.42A6.92,6.92,0,0,1,688.05,820.8Z" transform="translate(-524.26 -815.77)"/><path class="cls-2" d="M597.67,842.1c3.08,5.11,1.67,11.58-3.17,14.44s-11.25,1.06-14.33-4-1.67-11.58,3.16-14.45S594.58,837,597.67,842.1Z" transform="translate(-524.26 -815.77)"/></svg>